PathFileType	4	(X/Y/Z)	D:\TRACE\spotREDO_2-26-24\spot_justArm_Motion_1_1-v60.trc
DataRate	CameraRate	NumFrames	NumMarkers	Units	OrigDataRate	OrigDataStartFrame	OrigNumFrames
100.00	100.00	      31	9	mm	100.00	876	      7000
Frame#	Time	front left toe			Front right toe			aft left toe			aft right toe			Arm			FL body			FR body			AL Body			AR Body			
		X1	Y1	Z1	X2	Y2	Z2	X3	Y3	Z3	X4	Y4	Z4	X5	Y5	Z5	X6	Y6	Z6	X7	Y7	Z7	X8	Y8	Z8	X9	Y9	Z9	

876	8.750	-296.55594	20.78625	-29.82530	136.29814	27.88929	-151.31485	-167.11588	5.01549	556.03680	270.48773	14.51531	448.55692	-31.55085	699.27374	-765.02991	-194.28073	551.54169	-130.43071	-42.10123	555.46454	-167.19656	3.30635	555.17737	730.78131	148.97432	555.58453	698.99420	
877	8.760	-296.20160	20.91508	-29.88713	136.79230	27.74731	-151.25298	-166.49625	4.66715	556.15808	270.77869	14.00810	448.78674	-30.07673	698.85309	-764.60040	-193.31187	551.40515	-130.18672	-40.99375	555.17975	-166.80449	4.29036	554.81006	730.91522	149.71738	555.07831	699.20380	
878	8.770	-295.87473	21.15518	-29.91491	136.67569	27.42979	-151.07436	-166.04224	4.30763	556.30414	270.80206	13.73122	448.80554	-29.01876	698.54846	-764.53387	-192.09164	551.44928	-130.26022	-39.38317	554.92755	-166.33904	5.41068	554.40228	731.04504	150.79906	554.46014	699.42828	
879	8.780	-295.65860	21.30079	-29.86529	136.86389	27.37880	-150.94986	-165.82085	4.09484	556.36536	270.86417	13.42123	448.77621	-27.70432	698.20557	-764.13562	-190.80708	551.47845	-130.07802	-38.11797	554.73291	-166.34648	6.04141	554.02661	731.08112	151.78418	553.79443	699.55432	
880	8.790	-295.49869	21.40491	-29.93821	137.17805	27.23457	-150.67943	-165.74622	3.85582	556.38501	270.98010	13.03170	448.85532	-26.79613	697.80957	-764.04321	-189.74265	551.51245	-130.11067	-37.14698	554.50635	-166.50842	6.90030	553.60425	731.22968	152.59204	553.31903	699.68652	
881	8.800	-295.29465	21.51113	-29.92478	137.43639	27.30815	-150.46498	-165.62315	3.74426	556.42932	271.23938	12.76166	449.08469	-26.05384	697.58313	-764.25220	-188.59097	551.36652	-130.06995	-36.20526	554.19312	-166.45209	7.85960	553.26080	731.35645	153.53064	552.64618	699.78162	
882	8.810	-295.20401	21.69592	-30.31306	137.37856	27.43203	-150.38498	-165.57176	3.61389	556.44806	271.28482	12.47446	449.10635	-25.12611	697.32928	-764.33478	-187.52760	551.32428	-130.02663	-35.33524	553.89099	-166.44473	8.72677	552.91571	731.39087	154.19844	552.08569	699.91705	
883	8.820	-295.06610	21.72994	-30.30880	137.62981	27.24204	-150.24240	-165.56430	3.45080	556.47675	271.31464	12.20591	449.15744	-24.14562	697.35022	-764.46710	-186.60342	551.13110	-129.94734	-34.25613	553.50293	-166.38109	9.59632	552.44025	731.49591	154.77835	551.66052	699.89825	
884	8.830	-295.08951	21.80669	-30.28530	137.63422	27.15864	-150.15846	-165.49733	3.28725	556.54755	271.33511	12.15342	449.31744	-23.26424	697.74377	-764.65149	-185.50845	551.03308	-129.87184	-32.85829	552.98236	-166.15549	10.29720	552.09265	731.45184	155.63884	550.38898	699.46222	
885	8.840	-295.03238	21.81451	-30.22102	137.64641	27.24380	-150.11679	-165.40131	3.02711	556.57306	271.42160	12.04718	449.51221	-22.61147	698.36914	-764.77637	-184.93591	551.24475	-130.44745	-31.86947	552.63379	-166.09164	11.03946	551.67902	731.51050	156.97495	550.42151	700.10614	
886	8.850	-294.87494	21.71268	-29.66201	137.65002	27.20332	-150.02843	-165.27155	2.72562	556.61523	271.52539	11.82547	449.71912	-21.80149	698.95984	-764.76660	-183.72115	550.84064	-129.96301	-31.20014	552.47437	-166.10808	12.28566	551.19739	731.65051	157.98663	549.56763	700.14050	
887	8.860	-294.87952	21.79970	-29.58010	137.73138	27.30065	-149.91075	-165.27602	2.61135	556.65076	271.73868	11.68589	449.89148	-21.22222	699.91705	-764.82452	-183.06494	550.88556	-129.90591	-30.52568	552.37775	-166.03966	13.02201	550.72058	731.73529	158.70117	549.00873	700.30573	
888	8.870	-294.93341	21.93478	-29.53280	137.74547	27.43760	-149.74329	-165.33577	2.43385	556.68256	271.62878	11.21093	450.02899	-20.68981	700.73016	-764.99243	-182.15654	550.87988	-129.75371	-29.90671	552.18256	-165.93845	13.76972	550.23993	731.81610	159.88214	548.21472	700.51367	
889	8.880	-295.16525	22.12864	-29.47774	137.51810	27.43762	-149.81888	-165.54266	2.30359	556.64545	271.33649	10.86287	450.01440	-20.07732	701.66943	-764.87378	-181.35124	550.87537	-129.58748	-28.88654	551.90137	-165.79340	14.48931	549.83893	731.92578	160.23598	547.71881	700.48718	
890	8.890	-295.47473	22.27949	-29.40979	137.28621	27.21738	-149.81021	-165.79478	2.11487	556.65326	271.21326	10.69021	450.07477	-19.73443	702.37390	-764.76019	-180.52646	550.91492	-129.42619	-28.21500	551.82129	-165.73457	15.39915	549.38849	732.05273	161.18428	546.98834	700.61151	
891	8.900	-295.84009	22.34567	-29.34923	136.74652	27.17098	-149.84123	-166.08984	2.03420	556.71069	271.01740	10.59704	450.10172	-19.52005	702.99670	-764.66119	-180.43889	551.42493	-129.83870	-27.89031	551.78162	-165.86336	16.57570	548.91211	732.18237	161.82921	546.24176	700.75598	
892	8.910	-296.34467	22.50900	-29.26558	136.23473	27.32299	-149.77974	-166.66866	2.12832	556.86945	270.66318	10.31758	450.24002	-19.29797	703.80151	-764.57800	-179.67426	551.58228	-129.26782	-27.25027	551.68488	-165.69180	17.20407	548.54651	732.31409	162.51132	545.53064	700.72925	
893	8.920	-296.67438	22.65351	-29.48549	136.40205	27.72690	-149.51958	-166.92552	1.88231	557.01489	270.40884	10.09483	450.35947	-19.14964	704.26581	-764.54010	-179.06076	551.89105	-128.96523	-25.99500	551.55792	-165.02477	17.83179	548.06061	732.32056	163.29938	544.94275	700.65607	
894	8.930	-296.81122	22.66346	-29.24229	136.28993	27.76816	-149.46336	-167.13737	1.72663	557.09589	270.37161	10.04739	450.46146	-19.10692	704.57092	-764.52875	-178.59445	552.08643	-128.85205	-25.55895	551.69208	-165.00031	18.39352	547.56299	732.44495	164.09721	544.13391	700.78528	
895	8.940	-297.00507	22.69728	-29.47533	136.18747	27.73827	-149.40868	-167.31029	1.55415	557.17230	270.21448	10.01205	450.55688	-19.06616	704.86810	-764.28229	-177.94672	552.33093	-128.80150	-25.51075	551.93402	-165.23262	18.82638	547.14081	732.45636	164.47900	543.49872	700.92963	
896	8.950	-297.06534	22.74498	-29.45104	135.57919	27.14204	-149.85698	-167.48193	1.45637	557.14734	270.11203	9.90447	450.57657	-18.91350	705.26215	-764.31866	-177.59055	552.42126	-128.71695	-25.10710	552.07745	-165.11731	19.23546	546.78644	732.52057	164.70531	543.07526	701.16949	
897	8.960	-297.28598	22.85777	-29.12072	135.44698	27.30403	-149.44704	-167.87042	1.47566	557.16394	269.39688	9.55183	450.44992	-19.13533	705.67798	-763.88074	-176.92546	552.70752	-128.59663	-24.68289	552.20740	-165.00082	19.85225	546.23615	732.73248	164.95050	542.58972	701.26019	
898	8.970	-297.43329	22.85727	-29.03551	134.71185	27.11393	-149.71739	-168.13216	1.41348	557.23114	268.75943	9.22375	450.51999	-19.28693	705.98663	-763.78369	-176.71609	552.81525	-128.46437	-24.36728	552.32214	-164.88260	20.37679	546.00836	732.81183	165.73479	542.24695	701.28613	
899	8.980	-298.04907	22.86449	-28.93348	134.30466	27.38346	-149.13780	-168.41818	1.35318	557.40143	268.39871	9.05602	450.58630	-19.35161	706.23785	-763.65283	-176.47664	553.06476	-128.23471	-24.19221	552.40479	-164.71715	20.85554	545.80280	732.86896	166.08766	541.97046	701.37079	
900	8.990	-298.60233	22.94574	-28.81920	133.72908	27.36026	-149.17860	-168.95285	1.19907	557.43805	268.25241	8.97849	450.62186	-19.45634	706.43256	-763.47162	-176.28813	553.17596	-128.13185	-24.19345	552.52319	-164.73009	21.19060	545.53180	732.98285	166.38963	541.63861	701.43329	
901	9.000	-299.10284	22.88501	-28.77064	133.62300	27.44762	-149.08826	-169.33067	0.97567	557.57233	268.12762	8.98055	450.70190	-19.65178	706.65820	-763.30597	-176.16663	553.37701	-128.06613	-23.97949	552.67773	-164.56688	21.30864	545.21753	733.09381	166.62196	541.30908	701.50848	
902	9.010	-299.53314	22.97798	-28.78049	133.22130	27.31006	-149.12126	-170.02852	0.98025	557.53033	267.77640	8.77260	450.79572	-19.83902	706.93433	-763.17151	-175.98701	553.64337	-127.96188	-23.39426	552.86530	-164.05626	21.51899	544.78345	733.20837	166.93971	540.98083	701.57245	
903	9.020	-299.67105	23.02547	-28.73262	132.84135	27.37292	-149.08870	-170.44978	0.81061	557.39227	267.06021	8.49244	450.78000	-19.94720	707.12744	-763.05176	-176.30058	554.24689	-128.44467	-23.65120	553.23773	-164.39487	21.70087	544.42926	733.37756	167.14473	540.64410	701.61182	
904	9.030	-300.20529	23.01804	-28.85813	132.43675	27.44541	-149.08641	-170.76277	0.61913	557.43262	266.43448	8.26591	450.76501	-20.11943	707.35284	-762.91754	-175.84492	554.01727	-127.89916	-23.50688	553.41339	-164.25362	21.93566	544.13647	733.47363	167.31750	540.43231	701.74615	
905	9.040	-300.70831	23.11180	-29.21341	131.97804	27.37271	-149.09229	-170.91615	0.52584	557.56799	266.08295	8.16754	450.77750	-20.25220	707.61938	-762.66296	-175.81895	554.12256	-127.71140	-23.55268	553.64960	-164.11813	21.97048	543.92609	733.56744	167.23866	540.27216	701.76880	
906	9.050	-301.08368	22.99869	-28.73220	131.63875	27.54302	-149.05817	-171.15979	0.51324	557.62207	265.79395	8.15883	450.86389	-20.46582	707.90637	-762.49347	-175.92458	554.39410	-127.51443	-23.65104	553.89600	-163.91164	21.97580	543.77649	733.60181	167.30763	540.15729	701.84491	
